Genre:Drama
Language:English
IMDb:
 
http://www.imdb.com/title/tt1183923/

Source:BluRay x264-AVS720


Format : Matroska
File size : 2.00 GiB
Duration : 1h 50mn
Overall bit rate : 2 584 Kbps


Video
Format settings, CABAC : Yes
Format settings, ReFrames : 4 frames
Format settings, GOP : M=4, N=16
Codec ID : V_MPEG4/ISO/AVC
Duration : 1h 50mn
Bit rate : 2 200 Kbps
Width : 1 280 pixels
Height : 688 pixels
Display aspect ratio : 1.860
Frame rate mode : Variable
Frame rate : 23.976 fps
Color space : YUV
Chroma subsampling : 4:2:0
Bit depth : 8 bits
Scan type : Progressive
Bits/(Pixel*Frame) : 0.104
Stream size : 1.66 GiB (83%)
Writing library : x264


Audio
ID : 2
Format : AC-3
Format/Info : Audio Coding 3
Mode extension : CM (complete main)
Codec ID : A_AC3
Duration : 1h 50mn
Bit rate mode : Constant
Bit rate : 384 Kbps
Channel(s) : 6 channels
Channel positions : Front: L C R, Side: L R, LFE
Sampling rate : 48.0 KHz
Bit depth : 16 bits
Video delay : -1mn 5s
Stream size : 304 MiB (15%)
Language : English


Plot:
On a business trip to New Orleans, a damaged man seeks salvation by caring for a wayward young woman

TRAILER:
 
http://www.imdb.com/video/imdb/vi2107311641/
 
http://shareimage.org/images/er2k1j6yv413ivjvzdl.png
 
http://shareimage.org/images/qs58qelslpwu9g7a9avy.png
 
http://shareimage.org/images/ij6al779op7lb2k15.png
 
http://shareimage.org/images/n5uxbgdjizpc0n4avpzl.png
 
http://shareimage.org/images/qbvk415fq1la33b24hy.png
